<svg xmlns="http://www.w3.org/2000/svg" width="59.073" height="58.313" viewBox="0 0 59.073 58.313">
  <g id="그룹_21834" data-name="그룹 21834" transform="translate(-79 -643)">
    <g id="그룹_21833" data-name="그룹 21833">
      <path id="패스_7773" data-name="패스 7773" d="M475.8,58.313a8.125,8.125,0,0,1-8.109-8.111V7.01A7.018,7.018,0,0,1,474.7,0h2.2a7.018,7.018,0,0,1,7.01,7.01V50.2a8.123,8.123,0,0,1-8.114,8.114M474.7,1.2A5.814,5.814,0,0,0,468.89,7.01V50.2a6.91,6.91,0,1,0,13.82,0V7.01A5.814,5.814,0,0,0,476.9,1.2Z" transform="translate(-345.838 643)"/>
      <path id="패스_7774" data-name="패스 7774" d="M476.511,65.584a5.258,5.258,0,1,1,5.258-5.258,5.264,5.264,0,0,1-5.258,5.258m0-9.314a4.056,4.056,0,1,0,4.056,4.056,4.061,4.061,0,0,0-4.056-4.056" transform="translate(-346.564 632.049)"/>
      <path id="패스_7775" data-name="패스 7775" d="M458.287,52.931H418.943a4.577,4.577,0,0,1-4.572-4.572V11.083a4.577,4.577,0,0,1,4.572-4.572h39.344ZM418.943,7.713a3.374,3.374,0,0,0-3.37,3.37V48.359a3.374,3.374,0,0,0,3.37,3.37h38.142V7.713Z" transform="translate(-335.371 641.703)"/>
      <path id="패스_7776" data-name="패스 7776" d="M454.378,47.153H419.784V17.1h34.594Zm-33.392-1.2h32.19V18.3h-32.19Z" transform="translate(-336.477 639.6)"/>
      <rect id="사각형_24520" data-name="사각형 24520" width="9.901" height="1.202" transform="translate(84.117 667.279) rotate(-0.268)"/>
      <rect id="사각형_24521" data-name="사각형 24521" width="1.202" height="6.172" transform="translate(93.258 657.303)"/>
      <rect id="사각형_24522" data-name="사각형 24522" width="1.202" height="15.494" transform="translate(102.609 657.303)"/>
      <rect id="사각형_24523" data-name="사각형 24523" width="13.704" height="1.202" transform="translate(103.258 676.787)"/>
      <rect id="사각형_24524" data-name="사각형 24524" width="1.202" height="13.357" transform="translate(95.699 672.795)"/>
    </g>
  </g>
</svg>
